<svg width="21" height="26" viewBox="0 0 21 26" fill="none" xmlns="http://www.w3.org/2000/svg">
<path d="M11.1884 20.1653C11.9377 20.1653 12.5473 20.0702 13.017 19.8801C13.4979 19.69 13.8726 19.4439 14.141 19.1419C14.4095 18.84 14.594 18.4988 14.6946 18.1186C14.7953 17.7383 14.8456 17.3524 14.8456 16.961C14.8456 16.5136 14.7841 16.111 14.6611 15.7531C14.5493 15.3952 14.3479 15.0932 14.0571 14.8472C13.7775 14.6011 13.4029 14.411 12.9331 14.2768C12.4634 14.1426 11.8706 14.0754 11.1548 14.0754H7.19557V20.1653H11.1884ZM7.19557 4.24444V10.284H10.1482C10.7746 10.284 11.3394 10.2392 11.8427 10.1498C12.3459 10.0603 12.7709 9.9037 13.1177 9.68001C13.4756 9.45633 13.744 9.14876 13.9229 8.75731C14.1131 8.36586 14.2081 7.87375 14.2081 7.28098C14.2081 6.6994 14.1354 6.21847 13.99 5.8382C13.8446 5.44675 13.621 5.13359 13.319 4.89872C13.017 4.66385 12.6311 4.49609 12.1614 4.39543C11.7028 4.29477 11.1548 4.24444 10.5173 4.24444H7.19557ZM10.5173 0C12.2061 0 13.6433 0.15658 14.8289 0.469741C16.0144 0.782901 16.9818 1.22468 17.7312 1.79508C18.4805 2.36548 19.023 3.05891 19.3585 3.87536C19.7052 4.69182 19.8786 5.60334 19.8786 6.60992C19.8786 7.15795 19.8003 7.68921 19.6437 8.20369C19.4871 8.70698 19.2411 9.18231 18.9055 9.62969C18.57 10.0659 18.1394 10.4685 17.6138 10.8376C17.0881 11.2067 16.4562 11.5254 15.718 11.7938C17.3286 12.1853 18.5197 12.8172 19.2914 13.6896C20.0631 14.562 20.449 15.6916 20.449 17.0784C20.449 18.1186 20.2477 19.086 19.845 19.9808C19.4424 20.8755 18.8496 21.6584 18.0667 22.3295C17.295 22.9893 16.3387 23.5094 15.1979 23.8897C14.0571 24.2588 12.7542 24.4433 11.289 24.4433H1.52513V0H10.5173Z" fill="#CB3EFF"/>
<path d="M9.66324 21.6904C10.4126 21.6904 11.0221 21.5954 11.4919 21.4052C11.9728 21.2151 12.3475 20.969 12.6159 20.6671C12.8843 20.3651 13.0689 20.024 13.1695 19.6437C13.2702 19.2634 13.3205 18.8776 13.3205 18.4861C13.3205 18.0388 13.259 17.6361 13.136 17.2782C13.0241 16.9203 12.8228 16.6184 12.532 16.3723C12.2524 16.1262 11.8777 15.9361 11.408 15.8019C10.9382 15.6677 10.3455 15.6006 9.62969 15.6006H5.67044V21.6904H9.66324ZM5.67044 5.76957V11.8091H8.6231C9.24942 11.8091 9.81423 11.7644 10.3175 11.6749C10.8208 11.5854 11.2458 11.4288 11.5925 11.2051C11.9504 10.9815 12.2189 10.6739 12.3978 10.2824C12.5879 9.89099 12.683 9.39888 12.683 8.80611C12.683 8.22453 12.6103 7.7436 12.4649 7.36334C12.3195 6.97189 12.0958 6.65873 11.7938 6.42386C11.4919 6.18899 11.106 6.02122 10.6363 5.92056C10.1777 5.8199 9.62969 5.76957 8.99218 5.76957H5.67044ZM8.99218 1.52513C10.681 1.52513 12.1182 1.68171 13.3037 1.99487C14.4893 2.30803 15.4567 2.74981 16.2061 3.32021C16.9554 3.89061 17.4978 4.58404 17.8334 5.40049C18.1801 6.21695 18.3534 7.12847 18.3534 8.13505C18.3534 8.68309 18.2752 9.21434 18.1186 9.72882C17.962 10.2321 17.7159 10.7074 17.3804 11.1548C17.0449 11.591 16.6143 11.9936 16.0886 12.3627C15.563 12.7318 14.931 13.0506 14.1929 13.319C15.8034 13.7104 16.9945 14.3423 17.7663 15.2147C18.538 16.0871 18.9238 17.2167 18.9238 18.6036C18.9238 19.6437 18.7225 20.6111 18.3199 21.5059C17.9173 22.4006 17.3245 23.1835 16.5416 23.8546C15.7699 24.5145 14.8136 25.0345 13.6728 25.4148C12.532 25.7839 11.229 25.9684 9.7639 25.9684H0V1.52513H8.99218Z" fill="#1EB7D8"/>
</svg>
