<svg width="469" height="254" viewBox="0 0 469 254" fill="none" xmlns="http://www.w3.org/2000/svg">
<path d="M240.392 123.469C244.973 123.469 248.699 122.886 251.57 121.722C254.51 120.558 256.8 119.052 258.441 117.203C260.082 115.354 261.21 113.265 261.825 110.937C262.44 108.608 262.748 106.246 262.748 103.849C262.748 101.11 262.372 98.6447 261.62 96.4533C260.936 94.262 259.706 92.413 257.928 90.9065C256.219 89.4 253.929 88.2358 251.057 87.4141C248.186 86.5923 244.562 86.1814 240.187 86.1814H215.985V123.469H240.392ZM215.985 25.988V62.9669H234.034C237.862 62.9669 241.315 62.693 244.391 62.1451C247.468 61.5973 250.066 60.6386 252.185 59.269C254.373 57.8994 256.014 56.0162 257.108 53.6194C258.27 51.2226 258.851 48.2096 258.851 44.5801C258.851 41.0192 258.407 38.0746 257.518 35.7463C256.629 33.3495 255.262 31.4321 253.416 29.994C251.57 28.5559 249.211 27.5287 246.34 26.9124C243.537 26.2961 240.187 25.988 236.29 25.988H215.985ZM236.29 0C246.613 0 255.399 0.958713 262.646 2.87614C269.892 4.79356 275.806 7.4985 280.387 10.991C284.967 14.4834 288.283 18.7291 290.334 23.7281C292.454 28.7271 293.513 34.3082 293.513 40.4714C293.513 43.8269 293.035 47.0796 292.078 50.2297C291.12 53.3113 289.616 56.2216 287.565 58.9608C285.514 61.6315 282.882 64.0968 279.669 66.3566C276.456 68.6164 272.593 70.5681 268.081 72.2116C277.926 74.6084 285.207 78.4775 289.924 83.8189C294.641 89.1603 297 96.0767 297 104.568C297 110.937 295.769 116.86 293.308 122.339C290.847 127.817 287.223 132.611 282.438 136.719C277.72 140.76 271.875 143.944 264.902 146.272C257.928 148.532 249.963 149.662 241.007 149.662H181.323V0H236.29Z" fill="#CB3EFF"/>
<path d="M231.069 132.807C235.65 132.807 239.376 132.225 242.247 131.06C245.187 129.896 247.477 128.39 249.118 126.541C250.759 124.692 251.887 122.603 252.502 120.275C253.118 117.947 253.425 115.584 253.425 113.187C253.425 110.448 253.049 107.983 252.297 105.791C251.614 103.6 250.383 101.751 248.605 100.245C246.896 98.7381 244.606 97.5739 241.734 96.7522C238.863 95.9304 235.24 95.5195 230.864 95.5195H206.662V132.807H231.069ZM206.662 35.3261V72.305H224.711C228.54 72.305 231.992 72.0311 235.069 71.4832C238.145 70.9354 240.743 69.9767 242.863 68.6071C245.05 67.2375 246.691 65.3543 247.785 62.9575C248.947 60.5608 249.528 57.5477 249.528 53.9183C249.528 50.3573 249.084 47.4127 248.195 45.0844C247.306 42.6876 245.939 40.7702 244.093 39.3321C242.247 37.894 239.889 36.8669 237.017 36.2505C234.214 35.6342 230.864 35.3261 226.967 35.3261H206.662ZM226.967 9.33811C237.291 9.33811 246.076 10.2968 253.323 12.2142C260.57 14.1317 266.483 16.8366 271.064 20.3291C275.645 23.8215 278.96 28.0672 281.011 33.0662C283.131 38.0653 284.19 43.6463 284.19 49.8095C284.19 53.165 283.712 56.4177 282.755 59.5678C281.798 62.6494 280.294 65.5598 278.243 68.2989C276.192 70.9696 273.559 73.4349 270.346 75.6947C267.133 77.9545 263.27 79.9062 258.758 81.5497C268.603 83.9465 275.884 87.8156 280.601 93.157C285.319 98.4984 287.677 105.415 287.677 113.906C287.677 120.275 286.447 126.198 283.985 131.677C281.524 137.155 277.901 141.949 273.115 146.057C268.398 150.098 262.552 153.282 255.579 155.61C248.605 157.87 240.641 159 231.685 159H172V9.33811H226.967Z" fill="#1EB7D8"/>
<path d="M22.1306 230.563C23.8467 230.563 25.2427 230.346 26.3185 229.912C27.4199 229.478 28.278 228.916 28.8927 228.227C29.5075 227.538 29.9301 226.759 30.1606 225.891C30.3911 225.023 30.5064 224.142 30.5064 223.249C30.5064 222.227 30.3655 221.308 30.0838 220.491C29.8276 219.674 29.3666 218.985 28.7006 218.423C28.0603 217.862 27.2022 217.428 26.1264 217.121C25.0506 216.815 23.6931 216.662 22.0538 216.662H12.9864V230.563H22.1306ZM12.9864 194.221V208.007H19.7485C21.1829 208.007 22.4764 207.905 23.629 207.701C24.7817 207.496 25.755 207.139 26.549 206.628C27.3687 206.118 27.9834 205.416 28.3932 204.522C28.8287 203.629 29.0464 202.505 29.0464 201.152C29.0464 199.825 28.8799 198.727 28.5469 197.859C28.2139 196.965 27.7017 196.25 27.0101 195.714C26.3185 195.178 25.4348 194.795 24.359 194.565C23.3088 194.335 22.0538 194.221 20.5937 194.221H12.9864ZM20.5937 184.532C24.4615 184.532 27.7529 184.889 30.468 185.604C33.1831 186.319 35.3987 187.327 37.1148 188.629C38.831 189.932 40.0733 191.514 40.8417 193.378C41.6357 195.242 42.0328 197.323 42.0328 199.62C42.0328 200.871 41.8535 202.084 41.4949 203.258C41.1363 204.407 40.5728 205.492 39.8043 206.513C39.0359 207.509 38.0498 208.428 36.8459 209.271C35.642 210.113 34.1948 210.841 32.5043 211.454C36.1927 212.347 38.9206 213.79 40.688 215.781C42.4554 217.772 43.3391 220.351 43.3391 223.517C43.3391 225.891 42.878 228.099 41.9559 230.142C41.0338 232.184 39.6763 233.971 37.8833 235.503C36.1159 237.01 33.9259 238.197 31.3133 239.065C28.7006 239.907 25.7166 240.328 22.3611 240.328H0V184.532H20.5937Z" fill="#22D3EE"/>
<path d="M85.2266 200.616V240.328H77.8497C76.3641 240.328 75.3907 239.665 74.9297 238.337L74.2381 236.039C73.4697 236.78 72.6756 237.456 71.856 238.069C71.0363 238.656 70.1527 239.167 69.2049 239.601C68.2828 240.009 67.2711 240.328 66.1697 240.558C65.0939 240.814 63.9156 240.941 62.6349 240.941C60.4577 240.941 58.5238 240.571 56.8333 239.831C55.1684 239.065 53.7596 238.005 52.607 236.652C51.4544 235.299 50.5835 233.703 49.9943 231.865C49.4052 230.027 49.1107 228.01 49.1107 225.814V200.616H61.0212V225.814C61.0212 227.78 61.4695 229.299 62.366 230.372C63.2625 231.444 64.5816 231.98 66.3233 231.98C67.6297 231.98 68.8463 231.712 69.9734 231.176C71.126 230.614 72.2402 229.861 73.316 228.916V200.616H85.2266Z" fill="#22D3EE"/>
<path d="M117.486 211.262C116.589 210.266 115.616 209.577 114.566 209.194C113.516 208.786 112.414 208.581 111.262 208.581C110.16 208.581 109.149 208.798 108.226 209.232C107.304 209.666 106.497 210.369 105.806 211.339C105.14 212.283 104.615 213.522 104.231 215.053C103.846 216.585 103.654 218.436 103.654 220.606C103.654 222.7 103.808 224.461 104.115 225.891C104.423 227.321 104.845 228.482 105.383 229.376C105.947 230.244 106.613 230.869 107.381 231.252C108.15 231.635 109.008 231.827 109.955 231.827C110.826 231.827 111.608 231.75 112.299 231.597C113.016 231.418 113.669 231.176 114.259 230.869C114.848 230.563 115.398 230.18 115.911 229.721C116.449 229.236 116.974 228.687 117.486 228.074V211.262ZM129.396 183V240.328H122.02C120.534 240.328 119.561 239.665 119.1 238.337L118.178 235.312C117.383 236.154 116.551 236.92 115.68 237.609C114.809 238.299 113.862 238.899 112.837 239.409C111.838 239.894 110.749 240.265 109.571 240.52C108.419 240.801 107.163 240.941 105.806 240.941C103.731 240.941 101.81 240.482 100.043 239.563C98.2753 238.643 96.7513 237.316 95.4706 235.58C94.1899 233.844 93.1781 231.725 92.4353 229.223C91.7181 226.695 91.3595 223.823 91.3595 220.606C91.3595 217.645 91.7694 214.9 92.589 212.373C93.4087 209.82 94.5613 207.624 96.0469 205.786C97.5582 203.922 99.364 202.467 101.464 201.42C103.565 200.373 105.883 199.85 108.419 199.85C110.493 199.85 112.235 200.144 113.644 200.731C115.053 201.318 116.333 202.109 117.486 203.105V183H129.396Z" fill="#22D3EE"/>
<path d="M152.62 218.385C154.592 218.385 156.014 217.9 156.884 216.93C157.781 215.934 158.229 214.658 158.229 213.1C158.229 211.492 157.781 210.228 156.884 209.309C156.014 208.39 154.592 207.93 152.62 207.93C150.647 207.93 149.213 208.39 148.317 209.309C147.446 210.228 147.01 211.492 147.01 213.1C147.01 213.866 147.113 214.568 147.318 215.207C147.548 215.845 147.894 216.407 148.355 216.892C148.816 217.351 149.392 217.721 150.084 218.002C150.801 218.257 151.646 218.385 152.62 218.385ZM161.841 241.784C161.841 240.839 161.418 240.163 160.573 239.754C159.728 239.32 158.626 239.014 157.269 238.835C155.911 238.656 154.387 238.554 152.697 238.529C151.032 238.478 149.367 238.375 147.702 238.222C146.959 238.733 146.344 239.307 145.858 239.946C145.397 240.558 145.166 241.26 145.166 242.052C145.166 242.613 145.281 243.124 145.512 243.584C145.768 244.043 146.203 244.439 146.818 244.771C147.433 245.103 148.252 245.358 149.277 245.537C150.327 245.741 151.646 245.843 153.234 245.843C154.951 245.843 156.359 245.741 157.461 245.537C158.562 245.332 159.433 245.052 160.073 244.694C160.739 244.337 161.2 243.903 161.457 243.392C161.713 242.907 161.841 242.371 161.841 241.784ZM173.598 201.841V206.169C173.598 206.833 173.406 207.356 173.021 207.739C172.663 208.122 172.035 208.415 171.139 208.62L168.257 209.271C168.411 209.832 168.526 210.407 168.603 210.994C168.705 211.581 168.757 212.194 168.757 212.832C168.757 214.824 168.334 216.611 167.489 218.194C166.669 219.777 165.529 221.13 164.069 222.253C162.635 223.351 160.931 224.206 158.959 224.819C156.987 225.406 154.874 225.7 152.62 225.7C152.005 225.7 151.403 225.687 150.814 225.661C150.225 225.61 149.648 225.534 149.085 225.432C148.214 225.968 147.779 226.568 147.779 227.231C147.779 227.895 148.137 228.38 148.854 228.687C149.572 228.967 150.519 229.172 151.698 229.299C152.876 229.401 154.208 229.478 155.693 229.529C157.205 229.555 158.741 229.644 160.304 229.797C161.866 229.925 163.39 230.155 164.876 230.487C166.387 230.818 167.732 231.355 168.91 232.095C170.089 232.835 171.036 233.831 171.753 235.082C172.471 236.307 172.829 237.878 172.829 239.792C172.829 241.579 172.394 243.328 171.523 245.039C170.652 246.749 169.371 248.268 167.681 249.596C165.99 250.924 163.916 251.983 161.457 252.775C158.998 253.592 156.18 254 153.004 254C149.879 254 147.177 253.706 144.897 253.119C142.643 252.532 140.76 251.753 139.249 250.783C137.764 249.839 136.662 248.741 135.945 247.49C135.228 246.239 134.869 244.937 134.869 243.584C134.869 241.822 135.381 240.354 136.406 239.18C137.431 238.005 138.865 237.061 140.709 236.346C139.736 235.759 138.967 235.005 138.404 234.086C137.84 233.167 137.559 231.98 137.559 230.525C137.559 229.938 137.661 229.325 137.866 228.687C138.071 228.023 138.391 227.385 138.826 226.772C139.288 226.134 139.851 225.534 140.517 224.972C141.183 224.41 141.977 223.912 142.899 223.478C140.824 222.381 139.185 220.938 137.981 219.151C136.777 217.338 136.175 215.232 136.175 212.832C136.175 210.841 136.598 209.054 137.443 207.471C138.289 205.862 139.441 204.509 140.901 203.412C142.387 202.288 144.129 201.433 146.127 200.846C148.124 200.233 150.289 199.927 152.62 199.927C156.001 199.927 158.998 200.565 161.61 201.841H173.598Z" fill="#22D3EE"/>
<path d="M202.597 215.704C202.597 214.76 202.469 213.841 202.213 212.947C201.982 212.054 201.585 211.262 201.022 210.573C200.484 209.858 199.767 209.284 198.87 208.85C197.974 208.415 196.885 208.198 195.605 208.198C193.351 208.198 191.583 208.85 190.302 210.152C189.022 211.428 188.176 213.279 187.767 215.704H202.597ZM187.613 222.598C187.997 225.917 189.009 228.329 190.648 229.835C192.288 231.316 194.401 232.057 196.988 232.057C198.371 232.057 199.562 231.891 200.561 231.559C201.56 231.227 202.444 230.857 203.212 230.448C204.006 230.04 204.723 229.67 205.364 229.338C206.03 229.006 206.721 228.84 207.438 228.84C208.386 228.84 209.103 229.184 209.59 229.874L213.048 234.125C211.818 235.529 210.486 236.678 209.052 237.571C207.643 238.439 206.183 239.129 204.672 239.639C203.186 240.124 201.688 240.456 200.177 240.635C198.691 240.839 197.269 240.941 195.912 240.941C193.12 240.941 190.495 240.494 188.036 239.601C185.602 238.682 183.463 237.329 181.619 235.542C179.801 233.754 178.353 231.533 177.278 228.878C176.228 226.223 175.702 223.134 175.702 219.611C175.702 216.955 176.151 214.441 177.047 212.066C177.969 209.692 179.276 207.611 180.966 205.824C182.682 204.037 184.744 202.62 187.152 201.573C189.585 200.527 192.326 200.003 195.374 200.003C198.012 200.003 200.42 200.412 202.597 201.229C204.8 202.046 206.683 203.233 208.245 204.79C209.833 206.348 211.063 208.262 211.934 210.535C212.83 212.781 213.278 215.334 213.278 218.194C213.278 219.087 213.24 219.815 213.163 220.376C213.086 220.938 212.945 221.385 212.74 221.717C212.536 222.049 212.254 222.278 211.895 222.406C211.562 222.534 211.127 222.598 210.589 222.598H187.613Z" fill="#22D3EE"/>
<path d="M232.967 240.941C231.072 240.941 229.394 240.673 227.934 240.137C226.5 239.575 225.283 238.797 224.284 237.801C223.311 236.78 222.568 235.554 222.056 234.125C221.543 232.695 221.287 231.099 221.287 229.338V208.811H217.906C217.292 208.811 216.766 208.62 216.331 208.237C215.896 207.828 215.678 207.241 215.678 206.475V201.841L222.017 200.616L224.361 190.927C224.668 189.702 225.539 189.089 226.974 189.089H233.198V200.693H243.072V208.811H233.198V228.533C233.198 229.453 233.416 230.218 233.851 230.831C234.312 231.418 234.965 231.712 235.811 231.712C236.246 231.712 236.605 231.674 236.886 231.597C237.194 231.495 237.45 231.393 237.655 231.291C237.885 231.163 238.09 231.061 238.269 230.984C238.474 230.882 238.705 230.831 238.961 230.831C239.32 230.831 239.601 230.921 239.806 231.099C240.037 231.252 240.267 231.508 240.498 231.865L244.11 237.495C242.573 238.643 240.844 239.512 238.923 240.099C237.002 240.66 235.016 240.941 232.967 240.941Z" fill="#22D3EE"/>
<path d="M271.718 230.563C273.434 230.563 274.83 230.346 275.906 229.912C277.007 229.478 277.866 228.916 278.48 228.227C279.095 227.538 279.518 226.759 279.748 225.891C279.979 225.023 280.094 224.142 280.094 223.249C280.094 222.227 279.953 221.308 279.671 220.491C279.415 219.674 278.954 218.985 278.288 218.423C277.648 217.862 276.79 217.428 275.714 217.121C274.638 216.815 273.281 216.662 271.641 216.662H262.574V230.563H271.718ZM262.574 194.221V208.007H269.336C270.77 208.007 272.064 207.905 273.217 207.701C274.369 207.496 275.343 207.139 276.137 206.628C276.956 206.118 277.571 205.416 277.981 204.522C278.416 203.629 278.634 202.505 278.634 201.152C278.634 199.825 278.467 198.727 278.134 197.859C277.801 196.965 277.289 196.25 276.598 195.714C275.906 195.178 275.022 194.795 273.947 194.565C272.896 194.335 271.641 194.221 270.181 194.221H262.574ZM270.181 184.532C274.049 184.532 277.34 184.889 280.056 185.604C282.771 186.319 284.986 187.327 286.702 188.629C288.419 189.932 289.661 191.514 290.429 193.378C291.223 195.242 291.62 197.323 291.62 199.62C291.62 200.871 291.441 202.084 291.082 203.258C290.724 204.407 290.16 205.492 289.392 206.513C288.623 207.509 287.637 208.428 286.433 209.271C285.23 210.113 283.782 210.841 282.092 211.454C285.78 212.347 288.508 213.79 290.276 215.781C292.043 217.772 292.927 220.351 292.927 223.517C292.927 225.891 292.466 228.099 291.543 230.142C290.621 232.184 289.264 233.971 287.471 235.503C285.703 237.01 283.513 238.197 280.901 239.065C278.288 239.907 275.304 240.328 271.949 240.328H249.588V184.532H270.181Z" fill="#CB3EFF"/>
<path d="M334.814 200.616V240.328H327.437C325.952 240.328 324.978 239.665 324.517 238.337L323.826 236.039C323.057 236.78 322.263 237.456 321.444 238.069C320.624 238.656 319.74 239.167 318.792 239.601C317.87 240.009 316.859 240.328 315.757 240.558C314.681 240.814 313.503 240.941 312.222 240.941C310.045 240.941 308.111 240.571 306.421 239.831C304.756 239.065 303.347 238.005 302.195 236.652C301.042 235.299 300.171 233.703 299.582 231.865C298.993 230.027 298.698 228.01 298.698 225.814V200.616H310.609V225.814C310.609 227.78 311.057 229.299 311.953 230.372C312.85 231.444 314.169 231.98 315.911 231.98C317.217 231.98 318.434 231.712 319.561 231.176C320.714 230.614 321.828 229.861 322.904 228.916V200.616H334.814Z" fill="#CB3EFF"/>
<path d="M367.073 211.262C366.177 210.266 365.204 209.577 364.153 209.194C363.103 208.786 362.002 208.581 360.849 208.581C359.748 208.581 358.736 208.798 357.814 209.232C356.892 209.666 356.085 210.369 355.393 211.339C354.727 212.283 354.202 213.522 353.818 215.053C353.434 216.585 353.242 218.436 353.242 220.606C353.242 222.7 353.396 224.461 353.703 225.891C354.01 227.321 354.433 228.482 354.971 229.376C355.534 230.244 356.2 230.869 356.969 231.252C357.737 231.635 358.595 231.827 359.543 231.827C360.414 231.827 361.195 231.75 361.887 231.597C362.604 231.418 363.257 231.176 363.846 230.869C364.435 230.563 364.986 230.18 365.498 229.721C366.036 229.236 366.561 228.687 367.073 228.074V211.262ZM378.984 183V240.328H371.607C370.122 240.328 369.148 239.665 368.687 238.337L367.765 235.312C366.971 236.154 366.139 236.92 365.268 237.609C364.397 238.299 363.449 238.899 362.424 239.409C361.426 239.894 360.337 240.265 359.159 240.52C358.006 240.801 356.751 240.941 355.393 240.941C353.319 240.941 351.398 240.482 349.63 239.563C347.863 238.643 346.339 237.316 345.058 235.58C343.777 233.844 342.766 231.725 342.023 229.223C341.306 226.695 340.947 223.823 340.947 220.606C340.947 217.645 341.357 214.9 342.177 212.373C342.996 209.82 344.149 207.624 345.634 205.786C347.146 203.922 348.951 202.467 351.052 201.42C353.152 200.373 355.47 199.85 358.006 199.85C360.081 199.85 361.823 200.144 363.231 200.731C364.64 201.318 365.921 202.109 367.073 203.105V183H378.984Z" fill="#CB3EFF"/>
<path d="M411.198 211.262C410.301 210.266 409.328 209.577 408.278 209.194C407.228 208.786 406.126 208.581 404.974 208.581C403.872 208.581 402.86 208.798 401.938 209.232C401.016 209.666 400.209 210.369 399.518 211.339C398.852 212.283 398.327 213.522 397.942 215.053C397.558 216.585 397.366 218.436 397.366 220.606C397.366 222.7 397.52 224.461 397.827 225.891C398.135 227.321 398.557 228.482 399.095 229.376C399.659 230.244 400.325 230.869 401.093 231.252C401.861 231.635 402.719 231.827 403.667 231.827C404.538 231.827 405.319 231.75 406.011 231.597C406.728 231.418 407.381 231.176 407.97 230.869C408.56 230.563 409.11 230.18 409.622 229.721C410.16 229.236 410.685 228.687 411.198 228.074V211.262ZM423.108 183V240.328H415.731C414.246 240.328 413.273 239.665 412.811 238.337L411.889 235.312C411.095 236.154 410.263 236.92 409.392 237.609C408.521 238.299 407.573 238.899 406.549 239.409C405.55 239.894 404.461 240.265 403.283 240.52C402.13 240.801 400.875 240.941 399.518 240.941C397.443 240.941 395.522 240.482 393.755 239.563C391.987 238.643 390.463 237.316 389.182 235.58C387.902 233.844 386.89 231.725 386.147 229.223C385.43 226.695 385.071 223.823 385.071 220.606C385.071 217.645 385.481 214.9 386.301 212.373C387.12 209.82 388.273 207.624 389.759 205.786C391.27 203.922 393.076 202.467 395.176 201.42C397.276 200.373 399.595 199.85 402.13 199.85C404.205 199.85 405.947 200.144 407.356 200.731C408.764 201.318 410.045 202.109 411.198 203.105V183H423.108Z" fill="#CB3EFF"/>
<path d="M469 200.616L447.715 250.63C447.356 251.421 446.921 251.996 446.408 252.353C445.896 252.736 445.076 252.928 443.949 252.928H435.036L442.72 236.844L426.814 200.616H437.341C438.263 200.616 438.967 200.82 439.454 201.229C439.966 201.637 440.338 202.122 440.568 202.684L447.1 219.802C447.715 221.359 448.214 222.955 448.598 224.589C448.88 223.772 449.162 222.955 449.444 222.138C449.725 221.321 450.02 220.517 450.327 219.725L456.244 202.684C456.475 202.097 456.885 201.612 457.474 201.229C458.063 200.82 458.703 200.616 459.395 200.616H469Z" fill="#CB3EFF"/>
</svg>
